<?xml version="1.0" encoding="utf-8"?>
<!-- Generator: Adobe Illustrator 17.0.0, SVG Export Plug-In . SVG Version: 6.00 Build 0)  -->
<!DOCTYPE svg PUBLIC "-//W3C//DTD SVG 1.1//EN" "http://www.w3.org/Graphics/SVG/1.1/DTD/svg11.dtd">
<svg version="1.1" id="Ebene_1" xmlns="http://www.w3.org/2000/svg" xmlns:xlink="http://www.w3.org/1999/xlink" x="0px" y="0px"
	 width="186.084px" height="139.099px" viewBox="0 0 186.084 139.099" enable-background="new 0 0 186.084 139.099"
	 xml:space="preserve">
<polygon opacity="0.7" fill="#E6332A" points="0,0 141.732,0 70.866,113.386 "/>
<polygon opacity="0.7" fill="#3AAA35" points="44.352,0 186.084,0 115.218,113.386 "/>
<polygon opacity="0.7" fill="#36A9E1" points="43.813,0 143.026,0 93.42,77.3 "/>
<g>
	<path d="M33.529,123.282h1.176l1.968,9.313c0.384,1.729,0.744,3.457,1.104,5.161h0.096c0.36-1.704,0.792-3.433,1.2-5.161
		l2.496-9.313h1.104l2.497,9.313c0.408,1.729,0.84,3.433,1.248,5.161h0.096c0.36-1.729,0.696-3.433,1.056-5.161l1.968-9.313h1.104
		l-3.552,15.817h-1.224l-2.88-10.849c-0.288-1.248-0.552-2.328-0.84-3.576H42.05c-0.264,1.248-0.576,2.328-0.864,3.576
		l-2.833,10.849H37.13L33.529,123.282z"/>
	<path d="M53.521,123.282h8.641v0.96h-7.537v5.977h6.336v0.96h-6.336v6.961h7.777v0.96h-8.881V123.282z"/>
	<path d="M74.426,139.099l-4.272-7.272h-3.36v7.272h-1.104v-15.817h4.512c3.145,0,5.208,1.152,5.208,4.177
		c0,2.52-1.584,3.96-4.056,4.296l4.344,7.345H74.426z M69.913,130.915c2.808,0,4.344-1.128,4.344-3.456
		c0-2.377-1.536-3.24-4.344-3.24h-3.12v6.696H69.913z"/>
	<path d="M78.961,123.282h1.104v8.785h0.048l7.657-8.785h1.296l-5.04,5.856l5.736,9.961H88.49l-5.208-9.121l-3.216,3.673v5.448
		h-1.104V123.282z"/>
	<path d="M91.417,136.243c1.152,1.296,2.808,2.137,4.657,2.137c2.399,0,3.936-1.297,3.936-3.169c0-1.968-1.296-2.616-2.855-3.312
		l-2.4-1.08c-1.368-0.601-3.192-1.585-3.192-3.937c0-2.28,1.968-3.889,4.584-3.889c1.921,0,3.457,0.864,4.417,1.896l-0.648,0.744
		c-0.912-0.984-2.185-1.633-3.769-1.633c-2.088,0-3.48,1.104-3.48,2.833c0,1.824,1.584,2.52,2.736,3.048l2.4,1.056
		c1.752,0.793,3.313,1.776,3.313,4.201c0,2.424-1.992,4.248-5.064,4.248c-2.304,0-4.08-0.984-5.328-2.376L91.417,136.243z"/>
	<path d="M110.017,122.994c1.848,0,3.264,0.912,4.104,1.896l-0.648,0.72c-0.864-0.96-2.017-1.608-3.456-1.608
		c-3.456,0-5.617,2.761-5.617,7.153c0,4.392,2.137,7.225,5.521,7.225c1.633,0,2.856-0.648,4.009-1.944l0.648,0.696
		c-1.2,1.392-2.641,2.256-4.705,2.256c-3.888,0-6.624-3.192-6.624-8.232C103.248,126.138,105.985,122.994,110.017,122.994z"/>
	<path d="M117.649,123.282h1.104v6.937h8.449v-6.937h1.104v15.817h-1.104v-7.921h-8.449v7.921h-1.104V123.282z"/>
	<path d="M139.897,133.674h-6.265l-1.849,5.425h-1.128l5.593-15.817h1.104l5.568,15.817h-1.176L139.897,133.674z M139.584,132.739
		l-1.008-2.952c-0.624-1.872-1.2-3.528-1.752-5.473h-0.097c-0.552,1.944-1.104,3.601-1.752,5.473l-1.008,2.952H139.584z"/>
	<path d="M144.792,123.282h1.104v9.625c0,4.2,1.992,5.473,4.225,5.473c2.28,0,4.297-1.272,4.297-5.473v-9.625h1.056v9.745
		c0,4.944-2.64,6.36-5.353,6.36c-2.736,0-5.328-1.416-5.328-6.36V123.282z"/>
</g>
</svg>
