<?xml version="1.0" encoding="utf-8"?>
<!-- Generator: Adobe Illustrator 16.0.4, SVG Export Plug-In . SVG Version: 6.00 Build 0)  -->
<svg version="1.2" baseProfile="tiny" id="Layer_1" xmlns="http://www.w3.org/2000/svg" xmlns:xlink="http://www.w3.org/1999/xlink"
	 x="0px" y="0px" width="200px" height="200px" viewBox="0 0 200 200" overflow="auto" xml:space="preserve">
<g>
	<path fill="#FFFFFF" d="M180.296,100.059c0,44.148-35.785,79.933-79.928,79.933S20.44,144.207,20.44,100.059
		c0-44.139,35.785-79.924,79.928-79.924S180.296,55.92,180.296,100.059z"/>
	<path d="M100.368,189.309c-49.211,0-89.246-40.035-89.246-89.25c0-49.207,40.035-89.241,89.246-89.241
		c49.21,0,89.246,40.035,89.246,89.241C189.614,149.274,149.579,189.309,100.368,189.309z M100.368,29.452
		c-38.934,0-70.611,31.678-70.611,70.607c0,38.943,31.678,70.616,70.611,70.616c38.938,0,70.611-31.673,70.611-70.616
		C170.979,61.129,139.306,29.452,100.368,29.452z"/>
</g>
<polygon points="141.924,71.682 128.749,58.507 100.37,86.891 71.986,58.507 58.812,71.682 87.195,100.066 58.812,128.445 
	71.986,141.62 100.37,113.241 128.749,141.62 141.924,128.445 113.544,100.066 "/>
</svg>
