<?xml version="1.0" encoding="utf-8"?>
<!-- Generator: Adobe Illustrator 16.0.4, SVG Export Plug-In . SVG Version: 6.00 Build 0)  -->
<!DOCTYPE svg PUBLIC "-//W3C//DTD SVG 1.1//EN" "http://www.w3.org/Graphics/SVG/1.1/DTD/svg11.dtd">
<svg version="1.1" id="Layer_1" xmlns="http://www.w3.org/2000/svg" xmlns:xlink="http://www.w3.org/1999/xlink" x="0px" y="0px"
	 width="200px" height="200px" viewBox="0 0 200 200" enable-background="new 0 0 200 200" xml:space="preserve">
<g>
	<path fill="#FFFFFF" d="M180.296,100.059c0,44.148-35.784,79.933-79.928,79.933c-44.143,0-79.928-35.785-79.928-79.933
		c0-44.139,35.785-79.924,79.928-79.924C144.512,20.135,180.296,55.92,180.296,100.059z"/>
	<path fill="#FFFFFF" d="M100.368,189.309c-49.211,0-89.246-40.035-89.246-89.25c0-49.207,40.035-89.241,89.246-89.241
		c49.21,0,89.245,40.035,89.245,89.241C189.613,149.273,149.579,189.309,100.368,189.309z M100.368,29.452
		c-38.934,0-70.611,31.678-70.611,70.607c0,38.943,31.678,70.616,70.611,70.616c38.938,0,70.61-31.673,70.61-70.616
		C170.979,61.129,139.307,29.452,100.368,29.452z"/>
</g>
<g>
	<path fill="#FFFFFF" d="M109.867,69.137H90.868v-17.29h18.999V69.137z M90.868,77.683h18.999v71.657H90.868V77.683z"/>
</g>
</svg>
