<?xml version="1.0" encoding="utf-8"?>
<!-- Generator: Adobe Illustrator 16.0.4, SVG Export Plug-In . SVG Version: 6.00 Build 0)  -->
<!DOCTYPE svg PUBLIC "-//W3C//DTD SVG 1.1//EN" "http://www.w3.org/Graphics/SVG/1.1/DTD/svg11.dtd">
<svg version="1.1" id="Layer_1" xmlns="http://www.w3.org/2000/svg" xmlns:xlink="http://www.w3.org/1999/xlink" x="0px" y="0px"
	 width="150px" height="150px" viewBox="0 0 150 150" enable-background="new 0 0 150 150" xml:space="preserve">
<g>
	<path fill="#FFFFFF" d="M75,141.837c-36.854,0-66.837-29.983-66.837-66.837C8.163,38.146,38.146,8.163,75,8.163
		c36.854,0,66.837,29.983,66.837,66.837C141.837,111.854,111.854,141.837,75,141.837z M75,19.163
		c-30.789,0-55.837,25.048-55.837,55.837c0,30.789,25.048,55.837,55.837,55.837c30.789,0,55.837-25.048,55.837-55.837
		C130.837,44.211,105.789,19.163,75,19.163z"/>
</g>
<polygon fill="#FFFFFF" points="96.315,74.774 79.158,84.373 62,93.973 62,74.774 62,55.576 79.158,65.175 "/>
</svg>
